<?xml version="1.0" encoding="UTF-8"?>
<!DOCTYPE svg PUBLIC "-//W3C//DTD SVG 1.1//EN" "http://www.w3.org/Graphics/SVG/1.1/DTD/svg11.dtd">
<svg xmlns="http://www.w3.org/2000/svg" version="1.1" width="964px" height="964px" style="shape-rendering:geometricPrecision; text-rendering:geometricPrecision; image-rendering:optimizeQuality; fill-rule:evenodd; clip-rule:evenodd" xmlns:xlink="http://www.w3.org/1999/xlink">
<g><path style="opacity:0.998" fill="#f68b29" d="M 70.5,-0.5 C 344.5,-0.5 618.5,-0.5 892.5,-0.5C 930.715,8.0482 954.382,31.3815 963.5,69.5C 963.5,70.8333 963.5,72.1667 963.5,73.5C 642.097,73.1674 320.764,73.5008 -0.5,74.5C -0.5,73.1667 -0.5,71.8333 -0.5,70.5C 8.17055,31.8295 31.8372,8.16279 70.5,-0.5 Z"/></g>
<g><path style="opacity:1" fill="#f58628" d="M 963.5,73.5 C 963.5,112.5 963.5,151.5 963.5,190.5C 927.5,190.5 891.5,190.5 855.5,190.5C 858.814,178.861 857.981,167.528 853,156.5C 848.749,151.274 844.415,151.274 840,156.5C 837.982,144.934 832.148,142.434 822.5,149C 818.214,153.064 815.048,157.897 813,163.5C 810.603,172.339 809.437,181.339 809.5,190.5C 539.5,190.5 269.5,190.5 -0.5,190.5C -0.5,151.833 -0.5,113.167 -0.5,74.5C 320.764,73.5008 642.097,73.1674 963.5,73.5 Z"/></g>
<g><path style="opacity:1" fill="#fffefe" d="M 855.5,190.5 C 853.088,196.985 850.421,203.318 847.5,209.5C 862.343,210.672 874.509,217.005 884,228.5C 892.833,241.166 899.833,254.832 905,269.5C 916.79,278.953 926.79,289.953 935,302.5C 936.755,312.323 933.255,319.323 924.5,323.5C 921.478,323.804 918.478,324.304 915.5,325C 920.174,330.418 918.84,333.585 911.5,334.5C 908.752,333.961 906.085,333.128 903.5,332C 896.583,326.079 888.916,321.412 880.5,318C 872.805,317.643 865.138,316.976 857.5,316C 852.106,315.235 847.106,313.402 842.5,310.5C 833.082,328.336 821.915,345.003 809,360.5C 791.301,381.096 769.468,395.262 743.5,403C 739.33,408.002 734.996,412.836 730.5,417.5C 712.728,433.434 697.062,451.101 683.5,470.5C 679.825,476.321 676.991,482.654 675,489.5C 674.167,490.333 673.333,491.167 672.5,492C 659.073,492.065 646.073,494.399 633.5,499C 624.397,499.081 615.73,497.081 607.5,493C 606,491.5 604.5,490 603,488.5C 602.505,486.527 602.338,484.527 602.5,482.5C 607.372,481.339 612.039,479.506 616.5,477C 619.811,477.215 623.144,477.215 626.5,477C 627.529,475.302 629.029,474.468 631,474.5C 634.254,475.294 637.254,476.628 640,478.5C 642.156,477.015 644.323,475.515 646.5,474C 649.877,473.631 653.21,473.631 656.5,474C 663.375,468.793 669.208,462.626 674,455.5C 680.168,442.665 684.501,429.331 687,415.5C 675.277,421.227 666.944,430.227 662,442.5C 660.333,447.167 658.667,451.833 657,456.5C 652.237,462.308 646.404,466.808 639.5,470C 629.981,470.739 620.481,470.573 611,469.5C 604.944,471.296 598.778,471.796 592.5,471C 585.08,467.188 582.746,461.521 585.5,454C 589.213,453.595 592.879,453.595 596.5,454C 598.637,447.495 602.971,444.828 609.5,446C 611.725,447.131 614.058,447.964 616.5,448.5C 618.624,446.879 620.624,445.046 622.5,443C 627.323,442.391 631.99,442.724 636.5,444C 643.523,436.793 649.189,428.626 653.5,419.5C 620.022,419.857 587.022,416.19 554.5,408.5C 546.201,435.769 533.201,460.436 515.5,482.5C 502.119,495.549 488.119,507.882 473.5,519.5C 454.635,532.428 435.635,545.095 416.5,557.5C 385.932,575.719 358.932,598.385 335.5,625.5C 317.995,644.141 309.162,666.474 309,692.5C 307.557,705.483 306.39,718.483 305.5,731.5C 303.913,747.794 302.413,764.128 301,780.5C 298.708,790.798 293.208,798.965 284.5,805C 278.33,808.919 271.997,812.586 265.5,816C 250.826,819.668 244.659,813.834 247,798.5C 250.298,794.2 253.965,790.2 258,786.5C 259.094,779.196 260.094,771.863 261,764.5C 264.159,757.512 267.826,750.846 272,744.5C 273.631,740.312 274.464,735.979 274.5,731.5C 277.731,696.079 277.064,660.746 272.5,625.5C 272.336,617.459 272.836,609.459 274,601.5C 275.607,595.619 278.274,590.286 282,585.5C 298.226,571.973 314.726,558.806 331.5,546C 335.367,541.798 339.533,537.965 344,534.5C 348.456,529.89 352.29,524.89 355.5,519.5C 360.001,513.841 363.501,507.508 366,500.5C 369.404,490.703 371.904,480.703 373.5,470.5C 377.253,453.058 379.253,435.392 379.5,417.5C 379.662,415.473 379.495,413.473 379,411.5C 360.406,392.921 356.906,371.921 368.5,348.5C 368.167,348.167 367.833,347.833 367.5,347.5C 351.63,354.197 338.13,364.197 327,377.5C 316.116,389.878 306.616,403.211 298.5,417.5C 288.324,434.323 279.657,451.989 272.5,470.5C 264.671,485.984 259.004,502.318 255.5,519.5C 248.294,554.864 240.961,590.198 233.5,625.5C 225.89,662.225 214.89,697.892 200.5,732.5C 174.813,776.348 136.479,797.181 85.5,795C 64.2865,790.936 45.1198,782.436 28,769.5C 27.51,768.207 27.3433,766.873 27.5,765.5C 42.5494,767.177 57.5494,769.343 72.5,772C 109.718,775.883 139.052,762.716 160.5,732.5C 164.722,727.745 168.222,722.412 171,716.5C 174.919,708.162 177.919,699.496 180,690.5C 183.724,668.931 186.558,647.264 188.5,625.5C 193.545,603.218 196.878,580.551 198.5,557.5C 200.084,545.003 201.417,532.336 202.5,519.5C 205.372,503.01 209.039,486.676 213.5,470.5C 219.537,453.387 225.204,436.054 230.5,418.5C 241.214,385.736 255.214,354.403 272.5,324.5C 315.094,259.495 374.761,218.995 451.5,203C 500.515,193.116 549.515,193.116 598.5,203C 610.114,206.205 621.447,210.205 632.5,215C 649.725,226.225 666.392,238.225 682.5,251C 703.023,265.204 725.689,270.204 750.5,266C 764.944,264.75 777.11,258.917 787,248.5C 792.587,238.994 797.92,229.327 803,219.5C 805.333,216.5 807.667,213.5 810,210.5C 810.048,203.844 809.881,197.178 809.5,190.5C 809.437,181.339 810.603,172.339 813,163.5C 815.048,157.897 818.214,153.064 822.5,149C 832.148,142.434 837.982,144.934 840,156.5C 844.415,151.274 848.749,151.274 853,156.5C 857.981,167.528 858.814,178.861 855.5,190.5 Z"/></g>
<g><path style="opacity:1" fill="#f58027" d="M -0.5,190.5 C 269.5,190.5 539.5,190.5 809.5,190.5C 809.881,197.178 810.048,203.844 810,210.5C 807.667,213.5 805.333,216.5 803,219.5C 797.92,229.327 792.587,238.994 787,248.5C 777.11,258.917 764.944,264.75 750.5,266C 725.689,270.204 703.023,265.204 682.5,251C 666.392,238.225 649.725,226.225 632.5,215C 621.447,210.205 610.114,206.205 598.5,203C 549.515,193.116 500.515,193.116 451.5,203C 374.761,218.995 315.094,259.495 272.5,324.5C 181.668,323.501 90.6682,323.167 -0.5,323.5C -0.5,279.167 -0.5,234.833 -0.5,190.5 Z"/></g>
<g><path style="opacity:1" fill="#f58127" d="M 855.5,190.5 C 891.5,190.5 927.5,190.5 963.5,190.5C 963.5,234.833 963.5,279.167 963.5,323.5C 950.5,323.5 937.5,323.5 924.5,323.5C 933.255,319.323 936.755,312.323 935,302.5C 926.79,289.953 916.79,278.953 905,269.5C 899.833,254.832 892.833,241.166 884,228.5C 874.509,217.005 862.343,210.672 847.5,209.5C 850.421,203.318 853.088,196.985 855.5,190.5 Z"/></g>
<g><path style="opacity:1" fill="#f47926" d="M -0.5,323.5 C 90.6682,323.167 181.668,323.501 272.5,324.5C 255.214,354.403 241.214,385.736 230.5,418.5C 153.668,417.501 76.6685,417.167 -0.5,417.5C -0.5,386.167 -0.5,354.833 -0.5,323.5 Z"/></g>
<g><path style="opacity:1" fill="#f47926" d="M 924.5,323.5 C 937.5,323.5 950.5,323.5 963.5,323.5C 963.5,354.833 963.5,386.167 963.5,417.5C 885.833,417.5 808.167,417.5 730.5,417.5C 734.996,412.836 739.33,408.002 743.5,403C 769.468,395.262 791.301,381.096 809,360.5C 821.915,345.003 833.082,328.336 842.5,310.5C 847.106,313.402 852.106,315.235 857.5,316C 865.138,316.976 872.805,317.643 880.5,318C 888.916,321.412 896.583,326.079 903.5,332C 906.085,333.128 908.752,333.961 911.5,334.5C 918.84,333.585 920.174,330.418 915.5,325C 918.478,324.304 921.478,323.804 924.5,323.5 Z"/></g>
<g><path style="opacity:1" fill="#f47927" d="M 379.5,417.5 C 352.5,417.5 325.5,417.5 298.5,417.5C 306.616,403.211 316.116,389.878 327,377.5C 338.13,364.197 351.63,354.197 367.5,347.5C 367.833,347.833 368.167,348.167 368.5,348.5C 356.906,371.921 360.406,392.921 379,411.5C 379.495,413.473 379.662,415.473 379.5,417.5 Z"/></g>
<g><path style="opacity:1" fill="#f47526" d="M -0.5,417.5 C 76.6685,417.167 153.668,417.501 230.5,418.5C 225.204,436.054 219.537,453.387 213.5,470.5C 142.167,470.5 70.8333,470.5 -0.5,470.5C -0.5,452.833 -0.5,435.167 -0.5,417.5 Z"/></g>
<g><path style="opacity:1" fill="#f47526" d="M 298.5,417.5 C 325.5,417.5 352.5,417.5 379.5,417.5C 379.253,435.392 377.253,453.058 373.5,470.5C 339.833,470.5 306.167,470.5 272.5,470.5C 279.657,451.989 288.324,434.323 298.5,417.5 Z"/></g>
<g><path style="opacity:1" fill="#f47628" d="M 602.5,482.5 C 573.5,482.5 544.5,482.5 515.5,482.5C 533.201,460.436 546.201,435.769 554.5,408.5C 587.022,416.19 620.022,419.857 653.5,419.5C 649.189,428.626 643.523,436.793 636.5,444C 631.99,442.724 627.323,442.391 622.5,443C 620.624,445.046 618.624,446.879 616.5,448.5C 614.058,447.964 611.725,447.131 609.5,446C 602.971,444.828 598.637,447.495 596.5,454C 592.879,453.595 589.213,453.595 585.5,454C 582.746,461.521 585.08,467.188 592.5,471C 598.778,471.796 604.944,471.296 611,469.5C 620.481,470.573 629.981,470.739 639.5,470C 646.404,466.808 652.237,462.308 657,456.5C 658.667,451.833 660.333,447.167 662,442.5C 666.944,430.227 675.277,421.227 687,415.5C 684.501,429.331 680.168,442.665 674,455.5C 669.208,462.626 663.375,468.793 656.5,474C 653.21,473.631 649.877,473.631 646.5,474C 644.323,475.515 642.156,477.015 640,478.5C 637.254,476.628 634.254,475.294 631,474.5C 629.029,474.468 627.529,475.302 626.5,477C 623.144,477.215 619.811,477.215 616.5,477C 612.039,479.506 607.372,481.339 602.5,482.5 Z"/></g>
<g><path style="opacity:1" fill="#f47526" d="M 730.5,417.5 C 808.167,417.5 885.833,417.5 963.5,417.5C 963.5,435.167 963.5,452.833 963.5,470.5C 870.167,470.5 776.833,470.5 683.5,470.5C 697.062,451.101 712.728,433.434 730.5,417.5 Z"/></g>
<g><path style="opacity:1" fill="#f37225" d="M -0.5,470.5 C 70.8333,470.5 142.167,470.5 213.5,470.5C 209.039,486.676 205.372,503.01 202.5,519.5C 134.833,519.5 67.1667,519.5 -0.5,519.5C -0.5,503.167 -0.5,486.833 -0.5,470.5 Z"/></g>
<g><path style="opacity:1" fill="#f37225" d="M 272.5,470.5 C 306.167,470.5 339.833,470.5 373.5,470.5C 371.904,480.703 369.404,490.703 366,500.5C 363.501,507.508 360.001,513.841 355.5,519.5C 322.167,519.5 288.833,519.5 255.5,519.5C 259.004,502.318 264.671,485.984 272.5,470.5 Z"/></g>
<g><path style="opacity:1" fill="#f37225" d="M 683.5,470.5 C 776.833,470.5 870.167,470.5 963.5,470.5C 963.5,486.833 963.5,503.167 963.5,519.5C 800.167,519.5 636.833,519.5 473.5,519.5C 488.119,507.882 502.119,495.549 515.5,482.5C 544.5,482.5 573.5,482.5 602.5,482.5C 602.338,484.527 602.505,486.527 603,488.5C 604.5,490 606,491.5 607.5,493C 615.73,497.081 624.397,499.081 633.5,499C 646.073,494.399 659.073,492.065 672.5,492C 673.333,491.167 674.167,490.333 675,489.5C 676.991,482.654 679.825,476.321 683.5,470.5 Z"/></g>
<g><path style="opacity:1" fill="#f36f25" d="M -0.5,519.5 C 67.1667,519.5 134.833,519.5 202.5,519.5C 201.417,532.336 200.084,545.003 198.5,557.5C 132.167,557.5 65.8333,557.5 -0.5,557.5C -0.5,544.833 -0.5,532.167 -0.5,519.5 Z"/></g>
<g><path style="opacity:1" fill="#f36f26" d="M 255.5,519.5 C 288.833,519.5 322.167,519.5 355.5,519.5C 352.29,524.89 348.456,529.89 344,534.5C 339.533,537.965 335.367,541.798 331.5,546C 314.726,558.806 298.226,571.973 282,585.5C 278.274,590.286 275.607,595.619 274,601.5C 272.836,609.459 272.336,617.459 272.5,625.5C 259.5,625.5 246.5,625.5 233.5,625.5C 240.961,590.198 248.294,554.864 255.5,519.5 Z"/></g>
<g><path style="opacity:1" fill="#f36f25" d="M 473.5,519.5 C 636.833,519.5 800.167,519.5 963.5,519.5C 963.5,532.167 963.5,544.833 963.5,557.5C 781.167,557.5 598.833,557.5 416.5,557.5C 435.635,545.095 454.635,532.428 473.5,519.5 Z"/></g>
<g><path style="opacity:1" fill="#f36c25" d="M -0.5,557.5 C 65.8333,557.5 132.167,557.5 198.5,557.5C 196.878,580.551 193.545,603.218 188.5,625.5C 125.5,625.5 62.5,625.5 -0.5,625.5C -0.5,602.833 -0.5,580.167 -0.5,557.5 Z"/></g>
<g><path style="opacity:1" fill="#f36c25" d="M 416.5,557.5 C 598.833,557.5 781.167,557.5 963.5,557.5C 963.5,580.167 963.5,602.833 963.5,625.5C 754.167,625.5 544.833,625.5 335.5,625.5C 358.932,598.385 385.932,575.719 416.5,557.5 Z"/></g>
<g><path style="opacity:1" fill="#f26724" d="M -0.5,625.5 C 62.5,625.5 125.5,625.5 188.5,625.5C 186.558,647.264 183.724,668.931 180,690.5C 177.919,699.496 174.919,708.162 171,716.5C 168.222,722.412 164.722,727.745 160.5,732.5C 107.003,731.501 53.3359,731.168 -0.5,731.5C -0.5,696.167 -0.5,660.833 -0.5,625.5 Z"/></g>
<g><path style="opacity:1" fill="#f26725" d="M 233.5,625.5 C 246.5,625.5 259.5,625.5 272.5,625.5C 277.064,660.746 277.731,696.079 274.5,731.5C 249.759,731.177 225.092,731.51 200.5,732.5C 214.89,697.892 225.89,662.225 233.5,625.5 Z"/></g>
<g><path style="opacity:1" fill="#f26724" d="M 335.5,625.5 C 544.833,625.5 754.167,625.5 963.5,625.5C 963.5,660.833 963.5,696.167 963.5,731.5C 744.167,731.5 524.833,731.5 305.5,731.5C 306.39,718.483 307.557,705.483 309,692.5C 309.162,666.474 317.995,644.141 335.5,625.5 Z"/></g>
<g><path style="opacity:1" fill="#f16023" d="M -0.5,731.5 C 53.3359,731.168 107.003,731.501 160.5,732.5C 139.052,762.716 109.718,775.883 72.5,772C 57.5494,769.343 42.5494,767.177 27.5,765.5C 27.3433,766.873 27.51,768.207 28,769.5C 45.1198,782.436 64.2865,790.936 85.5,795C 136.479,797.181 174.813,776.348 200.5,732.5C 225.092,731.51 249.759,731.177 274.5,731.5C 274.464,735.979 273.631,740.312 272,744.5C 267.826,750.846 264.159,757.512 261,764.5C 260.094,771.863 259.094,779.196 258,786.5C 253.965,790.2 250.298,794.2 247,798.5C 244.659,813.834 250.826,819.668 265.5,816C 271.997,812.586 278.33,808.919 284.5,805C 293.208,798.965 298.708,790.798 301,780.5C 302.413,764.128 303.913,747.794 305.5,731.5C 524.833,731.5 744.167,731.5 963.5,731.5C 963.5,763.167 963.5,794.833 963.5,826.5C 642.167,826.5 320.833,826.5 -0.5,826.5C -0.5,794.833 -0.5,763.167 -0.5,731.5 Z"/></g>
<g><path style="opacity:1" fill="#f15a23" d="M -0.5,826.5 C 320.833,826.5 642.167,826.5 963.5,826.5C 963.5,848.833 963.5,871.167 963.5,893.5C 961.69,901.927 958.69,909.927 954.5,917.5C 639.167,916.167 323.833,916.167 8.5,917.5C 4.10401,909.644 1.10401,901.31 -0.5,892.5C -0.5,870.5 -0.5,848.5 -0.5,826.5 Z"/></g>
<g><path style="opacity:1" fill="#f05522" d="M 954.5,917.5 C 941.642,942.685 921.309,958.018 893.5,963.5C 618.833,963.5 344.167,963.5 69.5,963.5C 41.6913,958.018 21.358,942.685 8.5,917.5C 323.833,916.167 639.167,916.167 954.5,917.5 Z"/></g>
</svg>
